<?xml version="1.0" encoding="UTF-8" standalone="no"?>
<!-- Created with Inkscape (http://www.inkscape.org/) -->

<svg
   width="200"
   height="200"
   viewBox="0 0 52.916667 52.916666"
   version="1.1"
   id="svg1"
   xml:space="preserve"
   inkscape:version="1.4 (e7c3feb100, 2024-10-09)"
   sodipodi:docname="icons.svg"
   xmlns:inkscape="http://www.inkscape.org/namespaces/inkscape"
   xmlns:sodipodi="http://sodipodi.sourceforge.net/DTD/sodipodi-0.dtd"
   xmlns="http://www.w3.org/2000/svg"
   xmlns:svg="http://www.w3.org/2000/svg"><sodipodi:namedview
     id="namedview1"
     pagecolor="#ffffff"
     bordercolor="#000000"
     borderopacity="0.25"
     inkscape:showpageshadow="2"
     inkscape:pageopacity="0.0"
     inkscape:pagecheckerboard="true"
     inkscape:deskcolor="#d1d1d1"
     inkscape:document-units="mm"
     inkscape:zoom="2.6299322"
     inkscape:cx="108.1777"
     inkscape:cy="100.76306"
     inkscape:window-width="1920"
     inkscape:window-height="1080"
     inkscape:window-x="0"
     inkscape:window-y="0"
     inkscape:window-maximized="0"
     inkscape:current-layer="layer1" /><defs
     id="defs1" /><g
     inkscape:label="Layer 1"
     inkscape:groupmode="layer"
     id="layer1"><path
       style="fill:#ffffff;stroke:#000000;stroke-width:0.673111;stroke-linecap:round;stroke-linejoin:round;stroke-dasharray:none;stroke-dashoffset:1.14;stroke-opacity:1;paint-order:markers fill stroke"
       d="M 3.2885643,5.7578796 20.783553,2.5419691 22.647774,22.7145 7.8774136,24.322454 Z"
       id="path1" /><path
       style="fill:#ffffff;stroke:#c3c3c3;stroke-width:1.05833333;stroke-linecap:round;stroke-linejoin:round;stroke-dasharray:none;stroke-dashoffset:1.14;stroke-opacity:1;paint-order:markers fill stroke"
       d="M 6.5867997,7.9505459 C 7.1604058,7.8043681 18.919332,5.611702 18.919332,5.611702"
       id="path2" /><path
       style="fill:#ffffff;stroke:#c3c3c3;stroke-width:1.05833;stroke-linecap:round;stroke-linejoin:round;stroke-dasharray:none;stroke-dashoffset:1.14;stroke-opacity:1;paint-order:markers fill stroke"
       d="M 7.1604058,10.608402 18.919332,8.5619132"
       id="path3" /><path
       style="fill:#ffffff;stroke:#c3c3c3;stroke-width:1.05833;stroke-linecap:round;stroke-linejoin:round;stroke-dasharray:none;stroke-dashoffset:1.14;stroke-opacity:1;paint-order:markers fill stroke"
       d="M 8.0208151,13.395239 15.477696,12.225816"
       id="path4" /><path
       style="fill:#ffffff;stroke:#c3c3c3;stroke-width:1.05833;stroke-linecap:round;stroke-linejoin:round;stroke-dasharray:none;stroke-dashoffset:1.14;stroke-opacity:1;paint-order:markers fill stroke"
       d="M 8.9390321,18.008436 19.263944,16.400481"
       id="path5" /><path
       style="fill:#ffffff;stroke:#c3c3c3;stroke-width:1.05833;stroke-linecap:round;stroke-linejoin:round;stroke-dasharray:none;stroke-dashoffset:1.14;stroke-opacity:1;paint-order:markers fill stroke"
       d="M 9.5404256,20.402313 15.993495,19.525246"
       id="path6" /><path
       style="fill:#767676;fill-opacity:1;stroke:#000000;stroke-width:0.737237;stroke-linecap:round;stroke-linejoin:round;stroke-dasharray:none;stroke-dashoffset:1.14;stroke-opacity:1;paint-order:markers fill stroke"
       d="m 30.90066,4.4337129 c 0,0 -2.85437,5.8673181 -2.378641,11.1003321 0.475727,5.233012 2.378641,8.245959 2.378641,8.245959 l 18.077684,-0.158575 c 0,0 1.744337,-4.281557 1.585763,-9.355994 C 50.405528,9.1909977 47.709735,4.2751367 47.709735,4.2751367 Z"
       id="path7" /><path
       style="fill:#000000;fill-opacity:1;stroke:#000000;stroke-width:0.234356;stroke-linecap:round;stroke-linejoin:round;stroke-dashoffset:1.14;paint-order:markers fill stroke"
       d="m 32.868701,6.2098068 c 0,0 -2.268394,4.6628102 -1.890325,8.8215342 0.378063,4.158723 1.890325,6.553139 1.890325,6.553139 l 14.366501,-0.126017 c 0,0 1.386242,-3.402593 1.260221,-7.435294 C 48.369404,9.9904679 46.227029,6.0837882 46.227029,6.0837882 Z"
       id="path7-5" /><rect
       style="fill:#4d4d4d;fill-opacity:1;stroke:none;stroke-width:0.214468;stroke-linecap:round;stroke-linejoin:round;stroke-dashoffset:1.14;paint-order:markers fill stroke"
       id="rect7"
       width="1.2686094"
       height="3.6904995"
       x="33.279305"
       y="10.261387" /><rect
       style="fill:#777777;fill-opacity:1;stroke:none;stroke-width:0.214468;stroke-linecap:round;stroke-linejoin:round;stroke-dashoffset:1.14;paint-order:markers fill stroke"
       id="rect7-2"
       width="1.2686094"
       height="3.6904995"
       x="33.282112"
       y="9.8197193" /><rect
       style="fill:#ffffff;stroke:none;stroke-width:0.214468;stroke-linecap:round;stroke-linejoin:round;stroke-dashoffset:1.14;paint-order:markers fill stroke"
       id="rect7-2-5"
       width="1.2686094"
       height="3.6904995"
       x="33.275848"
       y="9.4264078" /><rect
       style="fill:#ffffff;stroke:none;stroke-width:0.215028;stroke-linecap:round;stroke-linejoin:round;stroke-dashoffset:1.14;paint-order:markers fill stroke"
       id="rect8"
       width="1.3875413"
       height="3.7001104"
       x="44.736431"
       y="15.256536" /><rect
       style="fill:#1f1f1f;fill-opacity:1;stroke:none;stroke-width:0.16251;stroke-linecap:round;stroke-linejoin:round;stroke-dasharray:none;stroke-dashoffset:1.14;paint-order:markers fill stroke"
       id="rect9-7"
       width="1.1795801"
       height="1.1795801"
       x="37.943531"
       y="11.977038" /><rect
       style="fill:#4b4b4b;fill-opacity:1;stroke:none;stroke-width:0.155169;stroke-linecap:round;stroke-linejoin:round;stroke-dasharray:none;stroke-dashoffset:1.14;paint-order:markers fill stroke"
       id="rect9"
       width="1.0853196"
       height="1.1688058"
       x="37.869869"
       y="11.8146" /><rect
       style="fill:#797979;fill-opacity:1;stroke:none;stroke-width:0.155169;stroke-linecap:round;stroke-linejoin:round;stroke-dasharray:none;stroke-dashoffset:1.14;paint-order:markers fill stroke"
       id="rect9-9"
       width="1.0853196"
       height="1.1688058"
       x="37.709988"
       y="11.664631" /><rect
       style="fill:#a7a7a7;fill-opacity:1;stroke:none;stroke-width:0.155169;stroke-linecap:round;stroke-linejoin:round;stroke-dasharray:none;stroke-dashoffset:1.14;paint-order:markers fill stroke"
       id="rect9-4"
       width="1.0853196"
       height="1.1688058"
       x="37.531513"
       y="11.491713" /><rect
       style="fill:#ffffff;fill-opacity:1;stroke:none;stroke-width:0.155169;stroke-linecap:round;stroke-linejoin:round;stroke-dasharray:none;stroke-dashoffset:1.14;paint-order:markers fill stroke"
       id="rect9-5"
       width="1.0853196"
       height="1.1688058"
       x="37.284252"
       y="11.302709" /><path
       style="fill:#3c4668;fill-opacity:1;stroke:#000000;stroke-width:0.772725;stroke-linecap:round;stroke-linejoin:round;stroke-dasharray:none;stroke-dashoffset:1.14;stroke-opacity:1;paint-order:markers fill stroke"
       d="m 33.335382,32.949209 13.546054,-3.324185 -0.0831,17.535077 c 0,0 0.498631,2.410033 -2.659346,2.410033 -3.157978,0 -2.659347,-1.994513 -2.659347,-1.994513 0,0 0.0831,-1.8283 2.410033,-1.8283 2.32693,0 0.654447,0.01041 0.654447,0.01041 l -1.06997,-10.398466 -7.645627,1.08036 -0.581733,9.307719 c 0,0 0.66484,2.659346 -1.99451,2.659346 -2.659346,0 -2.991767,-1.911408 -2.991767,-1.911408 0,0 0.332421,-1.911405 1.578991,-1.8283 1.246567,0.0831 1.329671,-0.41552 1.329671,-0.41552 z"
       id="path11" /><path
       id="path12"
       style="fill:#7f7f7f;fill-opacity:1;stroke:#000000;stroke-width:0.799928;stroke-linecap:round;stroke-linejoin:round;stroke-dasharray:none;stroke-dashoffset:1.14;stroke-opacity:1;paint-order:markers fill stroke"
       d="m 14.050982,28.802771 -5.0758061,1.849682 0.55917,2.365887 -1.806561,1.806561 -2.0216982,-0.68822 -0.8216399,3.004604 -0.6840099,2.501317 2.3229227,0.774311 0.9033587,2.408851 -1.8067186,1.677664 3.4842272,3.398141 1.9357691,-1.80656 2.451816,0.344032 1.075374,2.796006 4.90379,-1.548617 -0.817429,-2.279798 2.279801,-2.064662 2.150905,0.774303 1.290357,-4.516633 -2.451817,-1.16146 -0.774308,-2.752886 1.806716,-1.935766 -3.785449,-3.398142 -1.634544,1.97873 -2.752885,-0.645251 z m -0.215138,7.140626 c 1.829253,-2.3e-5 3.355192,1.693437 3.355226,3.570204 -3.6e-5,1.876764 -1.525973,3.226097 -3.355226,3.226078 -1.829191,-6.8e-5 -3.312018,-1.521437 -3.312054,-3.39814 3.4e-5,-1.876705 1.482862,-3.398076 3.312054,-3.398142 z"
       sodipodi:nodetypes="ccccccccccccccccccccccccccccccc" /></g></svg>
